<?xml version="1.0" standalone="no"?>
<!DOCTYPE svg PUBLIC "-//W3C//DTD SVG 20010904//EN"
 "http://www.w3.org/TR/2001/REC-SVG-20010904/DTD/svg10.dtd">
<svg version="1.0" xmlns="http://www.w3.org/2000/svg"
 width="464.000000pt" height="433.000000pt" viewBox="0 0 464.000000 433.000000"
 preserveAspectRatio="xMidYMid meet">

<g transform="translate(0.000000,433.000000) scale(0.100000,-0.100000)"
fill="#000000" stroke="none">
<path d="M2165 4184 c-611 -49 -1144 -344 -1493 -826 -54 -75 -57 -77 -79 -63
-12 8 -25 15 -28 15 -9 0 -5 -40 6 -61 8 -16 -1 -41 -51 -139 -156 -307 -223
-582 -223 -920 0 -300 57 -565 175 -823 17 -37 29 -70 26 -72 -3 -3 -48 -8
-102 -12 -64 -4 -96 -10 -96 -18 0 -18 465 -429 540 -477 36 -24 108 -78 160
-121 238 -197 494 -330 780 -406 179 -47 312 -64 510 -64 198 0 331 17 510 64
272 72 525 200 740 374 47 38 126 91 175 119 104 57 166 102 274 195 74 64
212 204 265 267 43 52 36 60 -51 68 -96 8 -126 15 -119 30 128 290 172 454
197 736 17 198 -6 435 -62 650 -39 147 -83 260 -159 409 -54 106 -59 122 -49
144 6 14 9 33 5 42 -6 16 -8 16 -29 2 -23 -15 -25 -13 -79 61 -271 374 -663
643 -1108 761 -63 16 -162 37 -220 45 -111 16 -331 26 -415 20z m355 -35 c550
-68 1034 -350 1361 -793 33 -44 59 -82 59 -85 0 -4 -48 -30 -107 -60 -163 -80
-386 -205 -496 -277 -54 -35 -99 -64 -100 -64 -1 0 -2 42 -3 93 -1 157 -71
362 -157 463 -20 22 -49 67 -65 100 -29 57 -82 211 -82 238 0 8 -6 19 -14 26
-12 9 -18 5 -35 -27 -30 -60 -109 -118 -339 -249 -156 -89 -240 -187 -275
-322 l-13 -51 -51 67 c-29 37 -72 88 -97 114 -67 69 -112 146 -146 247 -17 49
-30 96 -30 104 0 8 -7 20 -15 27 -12 10 -16 7 -25 -16 -6 -15 -42 -71 -79
-124 -38 -52 -85 -121 -106 -153 -80 -126 -135 -289 -135 -397 0 -104 55 -268
123 -364 19 -26 19 -32 7 -100 -12 -63 -30 -111 -30 -78 0 35 -47 127 -95 185
-135 163 -424 358 -827 558 -60 30 -108 56 -108 60 0 11 119 166 186 241 305
344 754 577 1224 637 96 12 373 13 470 0z m389 -774 c11 -38 34 -110 52 -160
29 -82 33 -101 33 -205 0 -78 -5 -136 -17 -180 -19 -70 -87 -215 -101 -215
-13 0 -75 191 -91 284 -8 46 -15 107 -15 135 0 57 -8 96 -20 96 -5 0 -22 -29
-38 -64 -17 -36 -79 -140 -138 -231 l-108 -167 -18 70 c-22 91 -67 198 -122
290 -41 69 -43 75 -35 123 11 68 57 164 106 219 24 27 84 71 149 109 194 114
258 155 294 188 l35 32 7 -127 c4 -77 15 -155 27 -197z m120 62 c114 -137 189
-371 173 -537 l-5 -55 -118 -115 c-99 -96 -123 -126 -151 -185 l-32 -70 -8 39
c-7 33 -5 45 16 76 135 205 163 473 70 692 -39 94 -54 166 -60 288 l-5 115 40
-100 c24 -59 57 -120 80 -148z m-1111 -74 c11 -29 55 -106 98 -170 135 -204
184 -325 184 -455 0 -48 -12 -119 -26 -158 -9 -25 -264 376 -308 485 -13 30
-26 59 -30 62 -13 14 -26 -22 -26 -77 -1 -74 -23 -194 -56 -303 -25 -81 -29
-87 -42 -71 -49 64 -112 256 -112 341 1 129 85 315 239 527 l35 50 12 -90 c6
-49 20 -113 32 -141z m176 -78 c190 -217 313 -442 332 -604 6 -58 5 -60 -49
-155 -30 -53 -63 -126 -73 -162 l-17 -65 -19 72 c-10 40 -31 93 -47 117 -27
42 -28 46 -15 87 21 71 27 174 14 245 -24 131 -66 223 -188 407 -82 125 -105
183 -116 298 l-6 60 48 -100 c37 -75 71 -125 136 -200z m-994 -301 c153 -91
272 -178 374 -274 152 -144 189 -222 200 -422 11 -180 38 -291 102 -420 19
-37 34 -70 34 -74 0 -3 -28 17 -62 44 -35 27 -145 104 -246 170 -100 67 -199
134 -219 149 -165 128 -266 242 -333 378 -21 44 -62 154 -90 245 -51 166 -105
295 -158 373 -16 23 -32 48 -37 56 -10 17 284 -135 435 -225z m2798 204 c-87
-134 -117 -205 -193 -453 -62 -202 -129 -318 -258 -447 -85 -84 -168 -147
-375 -284 -96 -63 -201 -135 -234 -160 l-60 -46 22 43 c68 133 98 254 109 443
13 213 43 280 190 423 75 73 215 178 331 248 104 63 460 255 474 255 4 0 2
-10 -6 -22z m-3184 -123 c30 -52 67 -145 107 -269 103 -318 150 -401 323 -571
l113 -111 22 -88 c12 -49 20 -90 18 -93 -6 -5 -140 87 -235 163 -179 142 -246
265 -277 508 -18 136 -67 334 -120 482 -19 54 -35 101 -35 104 1 11 42 -50 84
-125z m3196 6 c-59 -167 -97 -321 -114 -461 -37 -303 -110 -412 -425 -632 -44
-31 -81 -53 -81 -48 0 4 9 52 20 106 l20 98 105 99 c176 166 246 291 331 592
14 50 43 127 64 172 37 79 109 197 116 190 2 -1 -15 -54 -36 -116z m156 -25
c135 -282 194 -543 194 -856 0 -290 -57 -563 -170 -806 l-39 -84 -93 0 c-87 0
-209 -13 -251 -26 -11 -3 8 21 41 54 111 111 201 271 242 430 27 107 103 283
190 444 39 70 70 133 70 139 0 14 -24 9 -125 -30 -44 -17 -147 -55 -230 -85
-82 -30 -188 -70 -234 -90 l-84 -37 71 75 c111 118 157 230 181 446 6 52 20
132 31 177 31 132 122 393 133 386 5 -3 38 -65 73 -137z m-3438 47 c59 -164
101 -333 123 -479 11 -81 29 -174 40 -208 25 -83 82 -175 148 -243 31 -31 49
-54 41 -51 -135 58 -286 116 -410 158 -85 29 -167 59 -182 66 -32 17 -58 18
-58 4 0 -6 28 -61 61 -123 82 -150 145 -292 181 -407 76 -244 117 -319 247
-449 l94 -94 -44 7 c-108 17 -190 25 -262 26 l-78 0 -39 84 c-113 243 -170
516 -170 806 0 225 30 415 97 619 38 115 156 371 171 371 5 0 23 -39 40 -87z
m2069 -175 c-6 -29 -11 -208 -12 -398 -1 -359 -3 -383 -50 -570 -40 -155 -139
-440 -154 -440 -17 0 -61 59 -76 100 -32 89 -84 307 -89 375 -22 270 1 387
113 569 47 76 272 416 276 416 1 0 -3 -24 -8 -52z m56 -19 c3 -25 24 -102 46
-171 57 -180 74 -279 74 -438 0 -260 -81 -464 -249 -631 l-74 -73 30 76 c36
95 83 258 104 358 32 160 39 286 26 447 -12 150 -11 196 12 401 11 105 20 114
31 31z m-893 -46 c8 -60 12 -165 10 -273 -6 -266 -2 -373 15 -474 21 -124 67
-292 114 -422 22 -59 39 -109 38 -110 -1 -1 -43 42 -93 96 -108 116 -170 227
-211 377 -23 84 -27 118 -27 238 0 162 15 248 74 439 22 70 43 152 46 182 4
29 10 51 14 49 4 -3 13 -49 20 -102z m70 25 c24 -40 97 -153 162 -252 66 -98
126 -196 133 -217 23 -63 35 -146 46 -299 11 -165 37 -301 84 -447 l33 -103
-30 0 c-57 0 -118 -49 -118 -95 0 -11 7 -33 16 -50 10 -20 12 -31 4 -33 -6 -2
-24 -15 -39 -28 -16 -13 -31 -24 -34 -24 -9 0 -85 154 -125 256 -56 139 -119
340 -144 458 -19 92 -21 134 -23 456 -1 195 -5 376 -9 403 -5 26 -7 47 -4 47
3 0 24 -33 48 -72z m-1328 -654 c280 -98 450 -175 593 -269 121 -80 121 -80
139 -223 9 -68 16 -139 16 -157 l0 -34 -35 15 c-81 33 -179 11 -247 -57 -44
-44 -48 -46 -62 -30 -9 10 -16 25 -16 34 0 9 -7 17 -15 17 -32 0 -169 209
-272 413 -69 139 -100 184 -182 270 -35 37 -62 67 -58 67 3 0 65 -21 139 -46z
m3469 -2 c-79 -79 -139 -169 -202 -301 -32 -68 -82 -162 -110 -210 -82 -135
-260 -364 -274 -350 -2 3 5 33 16 67 16 47 25 62 40 62 15 0 19 7 19 35 l0 35
-90 0 -90 0 0 -35 c0 -30 3 -35 24 -35 l24 0 -21 -64 c-32 -99 -48 -95 -88 25
-32 93 -35 99 -61 99 -34 0 -34 -3 -4 173 15 91 29 144 41 157 54 59 257 175
450 255 86 36 352 133 367 134 4 1 -15 -21 -41 -47z m24 -114 c-76 -154 -102
-220 -155 -398 -73 -242 -247 -438 -468 -526 -24 -9 -45 -14 -47 -12 -3 3 2
27 10 55 11 36 27 61 53 83 125 108 276 324 394 562 44 90 95 183 111 208 25
37 171 190 180 190 2 0 -33 -73 -78 -162z m-3569 44 c58 -67 100 -136 177
-288 77 -151 153 -268 243 -374 61 -71 64 -77 64 -128 0 -29 7 -68 14 -87 8
-19 13 -35 10 -35 -8 0 -89 52 -141 92 -61 47 -147 150 -192 230 -18 31 -57
132 -87 225 -35 108 -80 219 -127 313 -39 80 -74 149 -76 154 -8 18 75 -55
115 -102z m2695 -139 c-56 -113 -90 -213 -115 -338 l-22 -110 -37 -3 c-30 -3
-36 0 -31 12 4 10 1 16 -10 16 -10 0 -13 -6 -10 -15 5 -12 -2 -15 -32 -15 -31
0 -41 -5 -50 -24 -13 -28 -2 -46 27 -46 13 0 24 -19 40 -70 22 -68 22 -71 5
-107 -57 -119 -178 -259 -310 -358 -83 -62 -228 -145 -305 -175 l-54 -21 6
103 c4 57 15 141 24 188 l18 84 49 25 c44 23 49 23 58 8 7 -14 24 -17 83 -17
l75 0 0 30 c0 27 -3 30 -33 30 -21 0 -41 8 -51 19 -16 18 -16 21 3 57 15 27
29 41 49 44 22 4 28 11 30 38 l3 33 -62 -3 -62 -3 -15 -42 c-15 -46 -23 -51
-42 -28 -10 11 -4 29 30 90 104 188 251 324 600 557 96 64 176 117 178 118 1
0 -15 -35 -37 -77z m-1857 -33 c47 -80 82 -172 106 -281 28 -128 40 -168 59
-209 11 -25 17 -71 19 -157 3 -117 3 -123 -16 -123 -11 0 -22 -5 -24 -12 -4
-12 -48 55 -48 74 0 6 -6 19 -14 27 -7 9 -20 37 -29 63 l-15 47 26 3 c26 3 27
5 30 75 l3 72 -38 3 -38 3 -12 105 c-12 114 -35 251 -57 345 -17 69 -11 65 48
-35z m136 -8 c244 -158 437 -323 540 -462 50 -68 130 -221 130 -251 0 -9 12
-42 26 -74 28 -60 69 -242 80 -356 l7 -68 -39 6 c-98 14 -221 84 -332 187 -58
55 -162 176 -162 190 0 3 32 6 70 6 l70 0 0 30 c0 23 -4 30 -20 30 -18 0 -20
7 -20 85 0 79 -2 87 -27 114 -31 34 -91 44 -130 23 -12 -7 -24 -12 -27 -12 -3
0 -6 34 -6 75 0 67 -2 75 -19 75 -11 0 -22 6 -25 13 -5 10 -7 10 -12 0 -3 -7
-20 -13 -38 -13 -30 0 -33 3 -44 48 -6 26 -21 88 -33 137 -21 91 -71 212 -108
264 -12 16 -21 32 -21 36 0 8 0 8 140 -83z m1754 -62 c-13 -69 -33 -187 -44
-264 -12 -78 -34 -176 -50 -224 -17 -47 -30 -87 -30 -89 0 -1 -4 -3 -8 -3 -5
0 -16 24 -26 54 -16 53 -14 106 5 106 5 0 9 11 9 24 0 41 39 217 67 301 24 74
93 229 98 223 2 -2 -8 -59 -21 -128z m-857 -426 c7 -18 -6 -45 -25 -52 -14 -4
-35 35 -28 54 7 19 45 18 53 -2z m-1051 -26 c21 -21 55 -151 38 -144 -8 3 -20
-8 -30 -29 -27 -57 -46 -54 -162 24 -53 34 -54 36 -49 75 7 47 42 85 88 95 40
9 96 -2 115 -21z m1918 -160 c-3 -5 1 -15 9 -21 9 -7 19 -24 22 -38 6 -24 2
-28 -53 -52 -70 -32 -87 -34 -77 -9 4 9 20 53 36 97 16 44 32 87 35 95 4 10
11 2 20 -24 8 -21 11 -43 8 -48z m-1536 60 c7 -7 12 -40 12 -80 0 -60 -2 -68
-19 -68 -28 0 -61 59 -61 109 0 22 5 41 10 41 6 0 10 -4 10 -10 0 -5 5 -10 11
-10 6 0 9 7 5 15 -7 18 15 20 32 3z m619 -50 c25 -23 29 -48 13 -79 -14 -24
-35 -24 -60 1 -24 24 -26 63 -4 84 20 21 23 20 51 -6z m-1114 -76 c-17 -4 -64
27 -71 46 -2 7 16 0 41 -15 28 -18 39 -29 30 -31z m1817 -11 c30 -86 27 -94
-84 -198 -63 -60 -101 -85 -190 -128 -102 -49 -261 -103 -272 -92 -3 3 24 21
59 40 78 44 174 114 240 176 62 57 161 180 188 232 10 22 23 39 28 39 4 0 18
-31 31 -69z m-2194 35 c63 -9 118 -26 180 -54 49 -22 108 -45 129 -50 60 -16
272 -34 306 -27 27 6 38 -1 123 -82 99 -94 203 -161 329 -214 43 -17 74 -35
70 -39 -4 -4 -42 -12 -83 -18 -194 -28 -475 -24 -475 7 0 8 -6 16 -12 19 -7 2
-13 -4 -13 -12 0 -16 -28 -15 -70 2 -15 6 -28 8 -67 11 -13 0 -23 8 -23 16 0
11 -7 14 -23 10 -54 -14 -218 63 -480 224 -110 68 -120 77 -157 140 -22 37
-40 70 -40 74 0 12 211 7 306 -7z m3174 6 c0 -4 -21 -43 -47 -85 -46 -74 -53
-80 -193 -172 -224 -148 -383 -217 -613 -267 -175 -37 -527 -35 -672 4 l-40
11 86 23 c213 57 356 133 466 246 l72 75 123 6 c146 8 206 22 336 81 86 39
185 67 277 79 58 8 205 7 205 -1z m127 -2 c21 0 33 -4 31 -11 -4 -11 -190
-119 -196 -114 -2 1 14 33 34 70 35 64 38 67 67 61 16 -3 45 -6 64 -6z m-3605
-52 c15 -28 27 -52 25 -54 -6 -5 -186 94 -180 99 3 4 34 7 67 7 l61 0 27 -52z
m901 -2 c4 -10 1 -13 -9 -9 -7 3 -14 9 -14 14 0 14 17 10 23 -5z m2727 -25
c-34 -48 -228 -227 -325 -300 -132 -100 -150 -106 -84 -30 30 35 80 96 111
134 48 62 73 81 184 148 70 42 130 77 132 77 2 0 -6 -13 -18 -29z m-3651 -42
c75 -42 100 -62 138 -112 26 -34 67 -87 92 -117 25 -30 39 -50 31 -45 -19 11
-360 315 -360 321 0 7 7 4 99 -47z m2795 25 c9 -24 9 -24 -41 -24 l-48 1 35
19 c43 24 46 24 54 4z m-1906 -1 c-10 -2 -26 -2 -35 0 -10 3 -2 5 17 5 19 0
27 -2 18 -5z m305 -42 c44 -66 151 -183 210 -231 31 -24 54 -46 52 -48 -8 -8
-176 78 -251 128 -43 30 -106 81 -139 114 l-60 61 80 6 c44 3 81 6 81 7 1 1
13 -16 27 -37z m605 14 c1 -1 -5 -44 -15 -95 l-18 -92 -22 93 c-12 52 -22 98
-23 102 0 6 69 0 78 -8z m-1595 -111 c23 -15 72 -47 109 -71 268 -176 679
-267 1003 -222 42 6 79 8 82 5 11 -11 -167 -57 -280 -72 -227 -30 -457 -2
-657 81 -35 15 -75 35 -88 46 -50 39 -234 259 -217 259 3 0 24 -12 48 -26z
m3124 -34 c-8 -12 -54 -66 -102 -120 -99 -114 -138 -137 -312 -189 -349 -103
-745 -93 -1018 28 -58 25 -59 26 -30 32 17 3 35 2 40 -1 14 -10 128 -37 210
-50 97 -16 326 -13 449 5 256 38 483 128 711 281 57 39 72 43 52 14z m-1695
-240 c46 -10 102 -21 125 -24 23 -2 59 -13 80 -25 170 -92 455 -143 683 -122
144 13 305 43 413 77 43 14 81 23 83 21 3 -3 -14 -21 -38 -40 -143 -116 -408
-258 -599 -320 -205 -67 -394 -97 -619 -97 -160 0 -263 10 -414 41 -300 62
-619 219 -861 423 l-30 25 92 -29 c253 -78 539 -80 778 -4 63 20 142 53 222
93 1 1 39 -8 85 -19z"/>
<path d="M2800 3575 c0 -8 7 -15 15 -15 8 0 15 4 15 9 0 5 -7 11 -15 15 -9 3
-15 0 -15 -9z"/>
<path d="M2760 3485 c0 -9 5 -15 11 -13 6 2 11 8 11 13 0 5 -5 11 -11 13 -6 2
-11 -4 -11 -13z"/>
<path d="M2680 3346 c0 -9 5 -16 10 -16 6 0 10 4 10 9 0 6 -4 13 -10 16 -5 3
-10 -1 -10 -9z"/>
<path d="M2800 3344 c0 -9 5 -14 12 -12 18 6 21 28 4 28 -9 0 -16 -7 -16 -16z"/>
<path d="M2866 3271 c-4 -7 -5 -15 -2 -18 9 -9 19 4 14 18 -4 11 -6 11 -12 0z"/>
<path d="M2800 3145 c0 -9 5 -15 11 -13 6 2 11 8 11 13 0 5 -5 11 -11 13 -6 2
-11 -4 -11 -13z"/>
<path d="M2890 3145 c0 -8 5 -15 10 -15 6 0 10 7 10 15 0 8 -4 15 -10 15 -5 0
-10 -7 -10 -15z"/>
<path d="M2930 3035 c0 -9 5 -15 11 -13 6 2 11 8 11 13 0 5 -5 11 -11 13 -6 2
-11 -4 -11 -13z"/>
<path d="M2860 2961 c0 -6 5 -13 10 -16 6 -3 10 1 10 9 0 9 -4 16 -10 16 -5 0
-10 -4 -10 -9z"/>
<path d="M2890 2860 c0 -19 3 -21 12 -12 9 9 9 15 0 24 -9 9 -12 7 -12 -12z"/>
<path d="M1820 3374 c0 -8 5 -12 10 -9 6 3 10 10 10 16 0 5 -4 9 -10 9 -5 0
-10 -7 -10 -16z"/>
<path d="M1877 3264 c-8 -8 1 -24 14 -24 5 0 9 7 9 15 0 15 -12 20 -23 9z"/>
<path d="M1960 3131 c0 -6 5 -13 10 -16 6 -3 10 1 10 9 0 9 -4 16 -10 16 -5 0
-10 -4 -10 -9z"/>
<path d="M1950 3035 c0 -8 5 -15 10 -15 6 0 10 7 10 15 0 8 -4 15 -10 15 -5 0
-10 -7 -10 -15z"/>
<path d="M2030 2906 c0 -9 7 -16 16 -16 9 0 14 5 12 12 -6 18 -28 21 -28 4z"/>
<path d="M2056 2841 c-4 -7 -5 -15 -2 -18 9 -9 19 4 14 18 -4 11 -6 11 -12 0z"/>
<path d="M2120 2756 c0 -9 5 -16 10 -16 6 0 10 4 10 9 0 6 -4 13 -10 16 -5 3
-10 -1 -10 -9z"/>
<path d="M880 2955 c0 -8 5 -15 10 -15 6 0 10 7 10 15 0 8 -4 15 -10 15 -5 0
-10 -7 -10 -15z"/>
<path d="M942 2879 c2 -6 8 -10 13 -10 5 0 11 4 13 10 2 6 -4 11 -13 11 -9 0
-15 -5 -13 -11z"/>
<path d="M970 2750 c0 -5 7 -10 15 -10 8 0 15 5 15 10 0 6 -7 10 -15 10 -8 0
-15 -4 -15 -10z"/>
<path d="M1080 2685 c0 -8 5 -15 10 -15 6 0 10 7 10 15 0 8 -4 15 -10 15 -5 0
-10 -7 -10 -15z"/>
<path d="M1006 2633 c-11 -11 -6 -23 9 -23 8 0 15 4 15 9 0 13 -16 22 -24 14z"/>
<path d="M1100 2600 c0 -5 5 -10 10 -10 6 0 10 5 10 10 0 6 -4 10 -10 10 -5 0
-10 -4 -10 -10z"/>
<path d="M1130 2555 c0 -8 5 -15 10 -15 6 0 10 7 10 15 0 8 -4 15 -10 15 -5 0
-10 -7 -10 -15z"/>
<path d="M1077 2514 c-8 -8 1 -24 14 -24 5 0 9 7 9 15 0 15 -12 20 -23 9z"/>
<path d="M1175 2489 c-10 -15 3 -25 16 -12 7 7 7 13 1 17 -6 3 -14 1 -17 -5z"/>
<path d="M1160 2430 c0 -5 5 -10 10 -10 6 0 10 5 10 10 0 6 -4 10 -10 10 -5 0
-10 -4 -10 -10z"/>
<path d="M1207 2394 c-8 -8 1 -24 14 -24 5 0 9 7 9 15 0 15 -12 20 -23 9z"/>
<path d="M1182 2329 c2 -6 8 -10 13 -10 5 0 11 4 13 10 2 6 -4 11 -13 11 -9 0
-15 -5 -13 -11z"/>
<path d="M1256 2333 c-11 -11 -6 -23 9 -23 8 0 15 4 15 9 0 13 -16 22 -24 14z"/>
<path d="M1322 2279 c2 -6 8 -10 13 -10 5 0 11 4 13 10 2 6 -4 11 -13 11 -9 0
-15 -5 -13 -11z"/>
<path d="M1250 2255 c0 -8 5 -15 10 -15 6 0 10 7 10 15 0 8 -4 15 -10 15 -5 0
-10 -7 -10 -15z"/>
<path d="M1360 2255 c0 -9 5 -15 11 -13 6 2 11 8 11 13 0 5 -5 11 -11 13 -6 2
-11 -4 -11 -13z"/>
<path d="M1440 2205 c0 -8 5 -15 10 -15 6 0 10 7 10 15 0 8 -4 15 -10 15 -5 0
-10 -7 -10 -15z"/>
<path d="M1346 2203 c-11 -11 -6 -23 9 -23 8 0 15 4 15 9 0 13 -16 22 -24 14z"/>
<path d="M1520 2160 c0 -5 5 -10 10 -10 6 0 10 5 10 10 0 6 -4 10 -10 10 -5 0
-10 -4 -10 -10z"/>
<path d="M1430 2140 c0 -5 7 -10 15 -10 8 0 15 5 15 10 0 6 -7 10 -15 10 -8 0
-15 -4 -15 -10z"/>
<path d="M1540 2075 c0 -8 5 -15 10 -15 6 0 10 7 10 15 0 8 -4 15 -10 15 -5 0
-10 -7 -10 -15z"/>
<path d="M3680 2955 c0 -8 5 -15 10 -15 6 0 10 7 10 15 0 8 -4 15 -10 15 -5 0
-10 -7 -10 -15z"/>
<path d="M3612 2879 c2 -6 8 -10 13 -10 5 0 11 4 13 10 2 6 -4 11 -13 11 -9 0
-15 -5 -13 -11z"/>
<path d="M3580 2750 c0 -5 7 -10 15 -10 8 0 15 5 15 10 0 6 -7 10 -15 10 -8 0
-15 -4 -15 -10z"/>
<path d="M3480 2685 c0 -8 5 -15 10 -15 6 0 10 7 10 15 0 8 -4 15 -10 15 -5 0
-10 -7 -10 -15z"/>
<path d="M3556 2633 c-11 -11 -6 -23 9 -23 8 0 15 4 15 9 0 13 -16 22 -24 14z"/>
<path d="M3460 2600 c0 -5 5 -10 10 -10 6 0 10 5 10 10 0 6 -4 10 -10 10 -5 0
-10 -4 -10 -10z"/>
<path d="M3430 2555 c0 -8 5 -15 10 -15 6 0 10 7 10 15 0 8 -4 15 -10 15 -5 0
-10 -7 -10 -15z"/>
<path d="M3480 2505 c0 -9 5 -15 11 -13 6 2 11 8 11 13 0 5 -5 11 -11 13 -6 2
-11 -4 -11 -13z"/>
<path d="M3387 2494 c-8 -8 1 -24 14 -24 5 0 9 7 9 15 0 15 -12 20 -23 9z"/>
<path d="M3400 2430 c0 -5 5 -10 10 -10 6 0 10 5 10 10 0 6 -4 10 -10 10 -5 0
-10 -4 -10 -10z"/>
<path d="M3350 2385 c0 -9 5 -15 11 -13 6 2 11 8 11 13 0 5 -5 11 -11 13 -6 2
-11 -4 -11 -13z"/>
<path d="M3306 2333 c-11 -11 -6 -23 9 -23 8 0 15 4 15 9 0 13 -16 22 -24 14z"/>
<path d="M3372 2329 c2 -6 8 -10 13 -10 5 0 11 4 13 10 2 6 -4 11 -13 11 -9 0
-15 -5 -13 -11z"/>
<path d="M3232 2279 c2 -6 8 -10 13 -10 5 0 11 4 13 10 2 6 -4 11 -13 11 -9 0
-15 -5 -13 -11z"/>
<path d="M3197 2264 c-8 -8 1 -24 14 -24 5 0 9 7 9 15 0 15 -12 20 -23 9z"/>
<path d="M3310 2255 c0 -8 5 -15 10 -15 6 0 10 7 10 15 0 8 -4 15 -10 15 -5 0
-10 -7 -10 -15z"/>
<path d="M3120 2205 c0 -8 5 -15 10 -15 6 0 10 7 10 15 0 8 -4 15 -10 15 -5 0
-10 -7 -10 -15z"/>
<path d="M3217 2203 c-12 -11 -8 -23 8 -23 8 0 15 7 15 15 0 16 -12 20 -23 8z"/>
<path d="M3040 2160 c0 -5 5 -10 10 -10 6 0 10 5 10 10 0 6 -4 10 -10 10 -5 0
-10 -4 -10 -10z"/>
<path d="M3120 2140 c0 -5 7 -10 15 -10 8 0 15 5 15 10 0 6 -7 10 -15 10 -8 0
-15 -4 -15 -10z"/>
<path d="M3020 2075 c0 -8 5 -15 10 -15 6 0 10 7 10 15 0 8 -4 15 -10 15 -5 0
-10 -7 -10 -15z"/>
<path d="M2590 2740 c0 -5 4 -10 9 -10 6 0 13 5 16 10 3 6 -1 10 -9 10 -9 0
-16 -4 -16 -10z"/>
<path d="M2580 2655 c0 -8 5 -15 10 -15 6 0 10 7 10 15 0 8 -4 15 -10 15 -5 0
-10 -7 -10 -15z"/>
<path d="M2610 2540 c0 -5 5 -10 10 -10 6 0 10 5 10 10 0 6 -4 10 -10 10 -5 0
-10 -4 -10 -10z"/>
<path d="M2560 2445 c0 -8 5 -15 10 -15 6 0 10 7 10 15 0 8 -4 15 -10 15 -5 0
-10 -7 -10 -15z"/>
<path d="M2640 2430 c0 -5 7 -10 15 -10 8 0 15 5 15 10 0 6 -7 10 -15 10 -8 0
-15 -4 -15 -10z"/>
<path d="M2580 2370 c0 -5 5 -10 10 -10 6 0 10 5 10 10 0 6 -4 10 -10 10 -5 0
-10 -4 -10 -10z"/>
<path d="M2576 2332 c-3 -6 -1 -14 5 -17 15 -10 25 3 12 16 -7 7 -13 7 -17 1z"/>
<path d="M2640 2305 c0 -8 5 -15 10 -15 6 0 10 7 10 15 0 8 -4 15 -10 15 -5 0
-10 -7 -10 -15z"/>
<path d="M2575 2251 c-6 -11 9 -23 19 -14 9 9 7 23 -3 23 -6 0 -12 -4 -16 -9z"/>
<path d="M2610 2210 c0 -5 5 -10 10 -10 6 0 10 5 10 10 0 6 -4 10 -10 10 -5 0
-10 -4 -10 -10z"/>
<path d="M2590 2161 c0 -6 5 -13 10 -16 6 -3 10 1 10 9 0 9 -4 16 -10 16 -5 0
-10 -4 -10 -9z"/>
<path d="M2630 2120 c0 -5 7 -10 15 -10 8 0 15 5 15 10 0 6 -7 10 -15 10 -8 0
-15 -4 -15 -10z"/>
<path d="M2585 2089 c-10 -15 3 -25 16 -12 7 7 7 13 1 17 -6 3 -14 1 -17 -5z"/>
<path d="M2620 2030 c0 -5 5 -10 10 -10 6 0 10 5 10 10 0 6 -4 10 -10 10 -5 0
-10 -4 -10 -10z"/>
<path d="M2550 2020 c0 -5 5 -10 10 -10 6 0 10 5 10 10 0 6 -4 10 -10 10 -5 0
-10 -4 -10 -10z"/>
<path d="M2530 1990 c0 -5 5 -10 10 -10 6 0 10 5 10 10 0 6 -4 10 -10 10 -5 0
-10 -4 -10 -10z"/>
<path d="M2572 1951 c2 -7 7 -12 11 -12 12 1 9 15 -3 20 -7 2 -11 -2 -8 -8z"/>
<path d="M2496 1921 c-4 -7 -5 -15 -2 -18 9 -9 19 4 14 18 -4 11 -6 11 -12 0z"/>
<path d="M2526 1872 c-3 -6 -1 -14 5 -17 15 -10 25 3 12 16 -7 7 -13 7 -17 1z"/>
<path d="M2450 1840 c0 -5 5 -10 10 -10 6 0 10 5 10 10 0 6 -4 10 -10 10 -5 0
-10 -4 -10 -10z"/>
<path d="M2470 1771 c0 -6 5 -13 10 -16 6 -3 10 1 10 9 0 9 -4 16 -10 16 -5 0
-10 -4 -10 -9z"/>
<path d="M1965 2740 c3 -5 10 -10 16 -10 5 0 9 5 9 10 0 6 -7 10 -16 10 -8 0
-12 -4 -9 -10z"/>
<path d="M1980 2655 c0 -8 5 -15 10 -15 6 0 10 7 10 15 0 8 -4 15 -10 15 -5 0
-10 -7 -10 -15z"/>
<path d="M1950 2540 c0 -5 5 -10 10 -10 6 0 10 5 10 10 0 6 -4 10 -10 10 -5 0
-10 -4 -10 -10z"/>
<path d="M2000 2445 c0 -8 5 -15 10 -15 6 0 10 7 10 15 0 8 -4 15 -10 15 -5 0
-10 -7 -10 -15z"/>
<path d="M1910 2430 c0 -5 7 -10 15 -10 8 0 15 5 15 10 0 6 -7 10 -15 10 -8 0
-15 -4 -15 -10z"/>
<path d="M1980 2370 c0 -5 5 -10 10 -10 6 0 10 5 10 10 0 6 -4 10 -10 10 -5 0
-10 -4 -10 -10z"/>
<path d="M1985 2329 c-10 -15 3 -25 16 -12 7 7 7 13 1 17 -6 3 -14 1 -17 -5z"/>
<path d="M1920 2305 c0 -8 5 -15 10 -15 6 0 10 7 10 15 0 8 -4 15 -10 15 -5 0
-10 -7 -10 -15z"/>
<path d="M1982 2251 c2 -7 7 -12 11 -12 12 1 9 15 -3 20 -7 2 -11 -2 -8 -8z"/>
<path d="M1950 2210 c0 -5 5 -10 10 -10 6 0 10 5 10 10 0 6 -4 10 -10 10 -5 0
-10 -4 -10 -10z"/>
<path d="M1965 2161 c-6 -11 9 -23 19 -14 9 9 7 23 -3 23 -6 0 -12 -4 -16 -9z"/>
<path d="M1920 2120 c0 -5 7 -10 15 -10 8 0 15 5 15 10 0 6 -7 10 -15 10 -8 0
-15 -4 -15 -10z"/>
<path d="M1976 2092 c-3 -6 -1 -14 5 -17 15 -10 25 3 12 16 -7 7 -13 7 -17 1z"/>
<path d="M1940 2030 c0 -5 5 -10 10 -10 6 0 10 5 10 10 0 6 -4 10 -10 10 -5 0
-10 -4 -10 -10z"/>
<path d="M2010 2020 c0 -5 5 -10 10 -10 6 0 10 5 10 10 0 6 -4 10 -10 10 -5 0
-10 -4 -10 -10z"/>
<path d="M2030 1990 c0 -5 5 -10 10 -10 6 0 10 5 10 10 0 6 -4 10 -10 10 -5 0
-10 -4 -10 -10z"/>
<path d="M1985 1951 c-6 -11 9 -23 19 -14 9 9 7 23 -3 23 -6 0 -12 -4 -16 -9z"/>
<path d="M2070 1916 c0 -9 5 -16 10 -16 6 0 10 4 10 9 0 6 -4 13 -10 16 -5 3
-10 -1 -10 -9z"/>
<path d="M2035 1869 c-10 -15 3 -25 16 -12 7 7 7 13 1 17 -6 3 -14 1 -17 -5z"/>
<path d="M2110 1840 c0 -5 5 -10 10 -10 6 0 10 5 10 10 0 6 -4 10 -10 10 -5 0
-10 -4 -10 -10z"/>
<path d="M2085 1771 c-6 -11 9 -23 19 -14 9 9 7 23 -3 23 -6 0 -12 -4 -16 -9z"/>
<path d="M680 2075 c0 -8 5 -15 10 -15 6 0 10 7 10 15 0 8 -4 15 -10 15 -5 0
-10 -7 -10 -15z"/>
<path d="M740 2010 c0 -5 5 -10 10 -10 6 0 10 5 10 10 0 6 -4 10 -10 10 -5 0
-10 -4 -10 -10z"/>
<path d="M770 1890 c0 -5 5 -10 10 -10 6 0 10 5 10 10 0 6 -4 10 -10 10 -5 0
-10 -4 -10 -10z"/>
<path d="M866 1841 c-4 -5 -2 -12 3 -15 5 -4 12 -2 15 3 4 5 2 12 -3 15 -5 4
-12 2 -15 -3z"/>
<path d="M800 1774 c0 -8 5 -12 10 -9 6 3 10 10 10 16 0 5 -4 9 -10 9 -5 0
-10 -7 -10 -16z"/>
<path d="M880 1760 c0 -5 7 -10 15 -10 8 0 15 5 15 10 0 6 -7 10 -15 10 -8 0
-15 -4 -15 -10z"/>
<path d="M910 1720 c0 -5 7 -10 15 -10 8 0 15 5 15 10 0 6 -7 10 -15 10 -8 0
-15 -4 -15 -10z"/>
<path d="M865 1670 c3 -5 10 -10 16 -10 5 0 9 5 9 10 0 6 -7 10 -16 10 -8 0
-12 -4 -9 -10z"/>
<path d="M955 1659 c-10 -15 3 -25 16 -12 7 7 7 13 1 17 -6 3 -14 1 -17 -5z"/>
<path d="M946 1611 c-4 -5 -2 -12 3 -15 5 -4 12 -2 15 3 4 5 2 12 -3 15 -5 4
-12 2 -15 -3z"/>
<path d="M985 1571 c-6 -11 9 -23 19 -14 9 9 7 23 -3 23 -6 0 -12 -4 -16 -9z"/>
<path d="M1030 1510 c0 -5 5 -10 10 -10 6 0 10 5 10 10 0 6 -4 10 -10 10 -5 0
-10 -4 -10 -10z"/>
<path d="M3880 2075 c0 -8 5 -15 10 -15 6 0 10 7 10 15 0 8 -4 15 -10 15 -5 0
-10 -7 -10 -15z"/>
<path d="M3820 2010 c0 -5 5 -10 10 -10 6 0 10 5 10 10 0 6 -4 10 -10 10 -5 0
-10 -4 -10 -10z"/>
<path d="M3790 1890 c0 -5 5 -10 10 -10 6 0 10 5 10 10 0 6 -4 10 -10 10 -5 0
-10 -4 -10 -10z"/>
<path d="M3696 1841 c-4 -5 -2 -12 3 -15 5 -4 12 -2 15 3 4 5 2 12 -3 15 -5 4
-12 2 -15 -3z"/>
<path d="M3760 1781 c0 -6 5 -13 10 -16 6 -3 10 1 10 9 0 9 -4 16 -10 16 -5 0
-10 -4 -10 -9z"/>
<path d="M3670 1760 c0 -5 7 -10 15 -10 8 0 15 5 15 10 0 6 -7 10 -15 10 -8 0
-15 -4 -15 -10z"/>
<path d="M3640 1720 c0 -5 7 -10 15 -10 8 0 15 5 15 10 0 6 -7 10 -15 10 -8 0
-15 -4 -15 -10z"/>
<path d="M3690 1670 c0 -5 4 -10 9 -10 6 0 13 5 16 10 3 6 -1 10 -9 10 -9 0
-16 -4 -16 -10z"/>
<path d="M3606 1662 c-3 -6 -1 -14 5 -17 15 -10 25 3 12 16 -7 7 -13 7 -17 1z"/>
<path d="M3616 1611 c-4 -5 -2 -12 3 -15 5 -4 12 -2 15 3 4 5 2 12 -3 15 -5 4
-12 2 -15 -3z"/>
<path d="M3572 1571 c2 -7 7 -12 11 -12 12 1 9 15 -3 20 -7 2 -11 -2 -8 -8z"/>
<path d="M3590 1510 c0 -5 5 -10 10 -10 6 0 10 5 10 10 0 6 -4 10 -10 10 -5 0
-10 -4 -10 -10z"/>
<path d="M3530 1445 c0 -8 5 -15 10 -15 6 0 10 7 10 15 0 8 -4 15 -10 15 -5 0
-10 -7 -10 -15z"/>
<path d="M3360 1410 c0 -5 5 -10 10 -10 6 0 10 5 10 10 0 6 -4 10 -10 10 -5 0
-10 -4 -10 -10z"/>
<path d="M3066 1782 c-3 -6 -1 -14 5 -17 15 -10 25 3 12 16 -7 7 -13 7 -17 1z"/>
<path d="M3010 1700 c0 -5 7 -10 15 -10 8 0 15 5 15 10 0 6 -7 10 -15 10 -8 0
-15 -4 -15 -10z"/>
<path d="M2892 1441 c2 -7 7 -12 11 -12 12 1 9 15 -3 20 -7 2 -11 -2 -8 -8z"/>
<path d="M2870 1395 c0 -8 5 -15 10 -15 6 0 10 7 10 15 0 8 -4 15 -10 15 -5 0
-10 -7 -10 -15z"/>
<path d="M2920 1350 c0 -5 5 -10 10 -10 6 0 10 5 10 10 0 6 -4 10 -10 10 -5 0
-10 -4 -10 -10z"/>
<path d="M2836 1332 c-3 -6 -1 -14 5 -17 15 -10 25 3 12 16 -7 7 -13 7 -17 1z"/>
<path d="M2850 1280 c0 -5 7 -10 16 -10 8 0 12 5 9 10 -3 6 -10 10 -16 10 -5
0 -9 -4 -9 -10z"/>
<path d="M2815 1239 c-10 -15 3 -25 16 -12 7 7 7 13 1 17 -6 3 -14 1 -17 -5z"/>
<path d="M2836 1192 c-3 -6 -1 -14 5 -17 15 -10 25 3 12 16 -7 7 -13 7 -17 1z"/>
<path d="M2775 1179 c-10 -15 3 -25 16 -12 7 7 7 13 1 17 -6 3 -14 1 -17 -5z"/>
<path d="M2715 1130 c-3 -5 1 -10 9 -10 9 0 16 5 16 10 0 6 -4 10 -9 10 -6 0
-13 -4 -16 -10z"/>
<path d="M2682 1111 c4 -13 18 -16 19 -4 0 4 -5 9 -11 12 -7 2 -11 -2 -8 -8z"/>
<path d="M2780 1110 c0 -5 7 -10 15 -10 8 0 15 5 15 10 0 6 -7 10 -15 10 -8 0
-15 -4 -15 -10z"/>
<path d="M2615 1061 c-6 -11 9 -23 19 -14 9 9 7 23 -3 23 -6 0 -12 -4 -16 -9z"/>
<path d="M2700 1050 c0 -5 7 -10 15 -10 8 0 15 5 15 10 0 6 -7 10 -15 10 -8 0
-15 -4 -15 -10z"/>
<path d="M2550 1004 c0 -8 5 -12 10 -9 6 3 10 10 10 16 0 5 -4 9 -10 9 -5 0
-10 -7 -10 -16z"/>
<path d="M2626 1002 c-3 -6 -1 -14 5 -17 15 -10 25 3 12 16 -7 7 -13 7 -17 1z"/>
<path d="M2460 940 c0 -5 5 -10 10 -10 6 0 10 5 10 10 0 6 -4 10 -10 10 -5 0
-10 -4 -10 -10z"/>
<path d="M2535 930 c-3 -5 1 -10 9 -10 9 0 16 5 16 10 0 6 -4 10 -9 10 -6 0
-13 -4 -16 -10z"/>
<path d="M1525 1771 c-6 -11 9 -23 19 -14 9 9 7 23 -3 23 -6 0 -12 -4 -16 -9z"/>
<path d="M1580 1695 c0 -8 5 -15 10 -15 6 0 10 7 10 15 0 8 -4 15 -10 15 -5 0
-10 -7 -10 -15z"/>
<path d="M1690 1510 c0 -5 5 -10 10 -10 6 0 10 5 10 10 0 6 -4 10 -10 10 -5 0
-10 -4 -10 -10z"/>
<path d="M1890 1130 c0 -5 5 -10 10 -10 6 0 10 5 10 10 0 6 -4 10 -10 10 -5 0
-10 -4 -10 -10z"/>
<path d="M1820 1110 c0 -5 5 -10 10 -10 6 0 10 5 10 10 0 6 -4 10 -10 10 -5 0
-10 -4 -10 -10z"/>
<path d="M1920 1110 c0 -5 5 -10 10 -10 6 0 10 5 10 10 0 6 -4 10 -10 10 -5 0
-10 -4 -10 -10z"/>
<path d="M1990 1060 c0 -5 5 -10 10 -10 6 0 10 5 10 10 0 6 -4 10 -10 10 -5 0
-10 -4 -10 -10z"/>
<path d="M1900 1050 c0 -5 5 -10 10 -10 6 0 10 5 10 10 0 6 -4 10 -10 10 -5 0
-10 -4 -10 -10z"/>
<path d="M2060 1010 c0 -5 5 -10 10 -10 6 0 10 5 10 10 0 6 -4 10 -10 10 -5 0
-10 -4 -10 -10z"/>
<path d="M1980 1000 c0 -5 5 -10 10 -10 6 0 10 5 10 10 0 6 -4 10 -10 10 -5 0
-10 -4 -10 -10z"/>
<path d="M2150 945 c0 -8 5 -15 10 -15 6 0 10 7 10 15 0 8 -4 15 -10 15 -5 0
-10 -7 -10 -15z"/>
<path d="M2070 930 c0 -5 5 -10 10 -10 6 0 10 5 10 10 0 6 -4 10 -10 10 -5 0
-10 -4 -10 -10z"/>
<path d="M1200 1410 c0 -5 5 -10 10 -10 6 0 10 5 10 10 0 6 -4 10 -10 10 -5 0
-10 -4 -10 -10z"/>
<path d="M1272 1371 c2 -7 7 -12 11 -12 12 1 9 15 -3 20 -7 2 -11 -2 -8 -8z"/>
<path d="M1195 1351 c-6 -11 9 -23 19 -14 9 9 7 23 -3 23 -6 0 -12 -4 -16 -9z"/>
<path d="M1290 1290 c0 -5 7 -10 15 -10 8 0 15 5 15 10 0 6 -7 10 -15 10 -8 0
-15 -4 -15 -10z"/>
<path d="M620 1170 c0 -5 7 -10 16 -10 8 0 12 5 9 10 -3 6 -10 10 -16 10 -5 0
-9 -4 -9 -10z"/>
<path d="M745 1100 c-3 -5 1 -10 9 -10 9 0 16 5 16 10 0 6 -4 10 -9 10 -6 0
-13 -4 -16 -10z"/>
<path d="M870 1050 c0 -5 5 -10 10 -10 6 0 10 5 10 10 0 6 -4 10 -10 10 -5 0
-10 -4 -10 -10z"/>
<path d="M980 1050 c0 -5 5 -10 10 -10 6 0 10 5 10 10 0 6 -4 10 -10 10 -5 0
-10 -4 -10 -10z"/>
<path d="M1036 1002 c-3 -6 -1 -14 5 -17 15 -10 25 3 12 16 -7 7 -13 7 -17 1z"/>
<path d="M1080 976 c0 -9 5 -16 10 -16 6 0 10 4 10 9 0 6 -4 13 -10 16 -5 3
-10 -1 -10 -9z"/>
<path d="M950 965 c0 -8 5 -15 10 -15 6 0 10 7 10 15 0 8 -4 15 -10 15 -5 0
-10 -7 -10 -15z"/>
<path d="M1146 942 c-3 -6 -1 -14 5 -17 15 -10 25 3 12 16 -7 7 -13 7 -17 1z"/>
<path d="M1060 910 c0 -5 5 -10 10 -10 6 0 10 5 10 10 0 6 -4 10 -10 10 -5 0
-10 -4 -10 -10z"/>
<path d="M1160 890 c0 -5 5 -10 10 -10 6 0 10 5 10 10 0 6 -4 10 -10 10 -5 0
-10 -4 -10 -10z"/>
<path d="M1220 875 c0 -8 5 -15 10 -15 6 0 10 7 10 15 0 8 -4 15 -10 15 -5 0
-10 -7 -10 -15z"/>
<path d="M1285 851 c-6 -11 9 -23 19 -14 9 9 7 23 -3 23 -6 0 -12 -4 -16 -9z"/>
<path d="M1360 846 c0 -9 5 -16 10 -16 6 0 10 4 10 9 0 6 -4 13 -10 16 -5 3
-10 -1 -10 -9z"/>
<path d="M1397 854 c-8 -8 1 -24 14 -24 5 0 9 7 9 15 0 15 -12 20 -23 9z"/>
<path d="M1480 840 c0 -5 5 -10 10 -10 6 0 10 5 10 10 0 6 -4 10 -10 10 -5 0
-10 -4 -10 -10z"/>
<path d="M1560 840 c0 -5 7 -10 15 -10 8 0 15 5 15 10 0 6 -7 10 -15 10 -8 0
-15 -4 -15 -10z"/>
<path d="M1510 784 c0 -8 5 -12 10 -9 6 3 10 10 10 16 0 5 -4 9 -10 9 -5 0
-10 -7 -10 -16z"/>
<path d="M1620 785 c0 -8 5 -15 10 -15 6 0 10 7 10 15 0 8 -4 15 -10 15 -5 0
-10 -7 -10 -15z"/>
<path d="M3935 1170 c-3 -5 1 -10 9 -10 9 0 16 5 16 10 0 6 -4 10 -9 10 -6 0
-13 -4 -16 -10z"/>
<path d="M3810 1100 c0 -5 7 -10 16 -10 8 0 12 5 9 10 -3 6 -10 10 -16 10 -5
0 -9 -4 -9 -10z"/>
<path d="M3580 1050 c0 -5 5 -10 10 -10 6 0 10 5 10 10 0 6 -4 10 -10 10 -5 0
-10 -4 -10 -10z"/>
<path d="M3690 1050 c0 -5 5 -10 10 -10 6 0 10 5 10 10 0 6 -4 10 -10 10 -5 0
-10 -4 -10 -10z"/>
<path d="M3525 999 c-10 -15 3 -25 16 -12 7 7 7 13 1 17 -6 3 -14 1 -17 -5z"/>
<path d="M3486 981 c-4 -7 -5 -15 -2 -18 9 -9 19 4 14 18 -4 11 -6 11 -12 0z"/>
<path d="M3610 965 c0 -8 5 -15 10 -15 6 0 10 7 10 15 0 8 -4 15 -10 15 -5 0
-10 -7 -10 -15z"/>
<path d="M3415 939 c-10 -15 3 -25 16 -12 7 7 7 13 1 17 -6 3 -14 1 -17 -5z"/>
<path d="M3500 910 c0 -5 5 -10 10 -10 6 0 10 5 10 10 0 6 -4 10 -10 10 -5 0
-10 -4 -10 -10z"/>
<path d="M3400 890 c0 -5 5 -10 10 -10 6 0 10 5 10 10 0 6 -4 10 -10 10 -5 0
-10 -4 -10 -10z"/>
<path d="M3340 875 c0 -8 5 -15 10 -15 6 0 10 7 10 15 0 8 -4 15 -10 15 -5 0
-10 -7 -10 -15z"/>
<path d="M3160 845 c0 -9 5 -15 11 -13 6 2 11 8 11 13 0 5 -5 11 -11 13 -6 2
-11 -4 -11 -13z"/>
<path d="M3206 851 c-4 -7 -5 -15 -2 -18 9 -9 19 4 14 18 -4 11 -6 11 -12 0z"/>
<path d="M3272 851 c2 -7 7 -12 11 -12 12 1 9 15 -3 20 -7 2 -11 -2 -8 -8z"/>
<path d="M2990 840 c0 -5 7 -10 15 -10 8 0 15 5 15 10 0 6 -7 10 -15 10 -8 0
-15 -4 -15 -10z"/>
<path d="M3080 840 c0 -5 5 -10 10 -10 6 0 10 5 10 10 0 6 -4 10 -10 10 -5 0
-10 -4 -10 -10z"/>
<path d="M3330 820 c0 -5 5 -10 10 -10 6 0 10 5 10 10 0 6 -4 10 -10 10 -5 0
-10 -4 -10 -10z"/>
<path d="M2940 785 c0 -8 5 -15 10 -15 6 0 10 7 10 15 0 8 -4 15 -10 15 -5 0
-10 -7 -10 -15z"/>
<path d="M3050 791 c0 -6 5 -13 10 -16 6 -3 10 1 10 9 0 9 -4 16 -10 16 -5 0
-10 -4 -10 -9z"/>
<path d="M3145 791 c-6 -11 9 -23 19 -14 9 9 7 23 -3 23 -6 0 -12 -4 -16 -9z"/>
<path d="M3250 790 c0 -5 5 -10 10 -10 6 0 10 5 10 10 0 6 -4 10 -10 10 -5 0
-10 -4 -10 -10z"/>
</g>
</svg>
